<?xml version="1.0" encoding="UTF-8" standalone="no"?>
<svg
   xmlns:osb="http://www.openswatchbook.org/uri/2009/osb"
   xmlns:dc="http://purl.org/dc/elements/1.1/"
   xmlns:cc="http://creativecommons.org/ns#"
   xmlns:rdf="http://www.w3.org/1999/02/22-rdf-syntax-ns#"
   xmlns:svg="http://www.w3.org/2000/svg"
   xmlns="http://www.w3.org/2000/svg"
   version="1.1"
   id="svg2"
   viewBox="0 0 64 64.000002"
   height="64"
   width="64">
  <defs
     id="defs4">
    <linearGradient
       osb:paint="solid"
       id="linearGradient4241">
      <stop
         id="stop4243"
         offset="0"
         style="stop-color:#ecd2d2;stop-opacity:1;" />
    </linearGradient>
    <linearGradient
       osb:paint="gradient"
       id="linearGradient4219">
      <stop
         id="stop4221"
         offset="0"
         style="stop-color:#000000;stop-opacity:1;" />
      <stop
         id="stop4223"
         offset="1"
         style="stop-color:#000000;stop-opacity:0;" />
    </linearGradient>
  </defs>
  <metadata
     id="metadata7">
    <rdf:RDF>
      <cc:Work
         rdf:about="">
        <dc:format>image/svg+xml</dc:format>
        <dc:type
           rdf:resource="http://purl.org/dc/dcmitype/StillImage" />
        <dc:title></dc:title>
      </cc:Work>
    </rdf:RDF>
  </metadata>
  <g
     transform="translate(0,-988.3622)"
     id="layer1">
    <path
       id="path4217"
       d="m 15.391528,1048.4196 c -1.765447,-0.2133 -1.677236,0.3519 -1.517761,-9.7248 0.155774,-9.8427 0.02714,-9.0194 1.779981,-11.3919 0.577827,-0.782 1.204417,-1.7202 1.39242,-2.0847 0.188013,-0.3644 0.662556,-1.0177 1.054558,-1.4516 l 0.712728,-0.789 5.658375,0 c 4.722471,0 5.69859,-0.048 5.901533,-0.2928 0.35408,-0.4267 0.479868,-3.0123 0.310931,-6.3917 -0.09662,-1.9327 -0.226842,-2.9762 -0.376441,-3.0167 -0.125798,-0.034 -1.049675,-0.1547 -2.053055,-0.269 -2.061632,-0.2343 -5.297341,-1.3877 -6.985223,-2.4901 -1.320087,-0.862 -1.701136,-1.651 -1.701534,-3.5222 -2.01e-4,-1.3548 0.04452,-1.512 0.58494,-2.0524 0.56048,-0.5604 0.661803,-0.5852 2.394068,-0.5852 l 1.808819,0 0.559132,0.7273 c 2.000733,2.602 2.556776,2.9159 5.021059,2.8344 l 1.744802,-0.058 0.115164,-1.3014 c 0.122426,-1.3836 -0.04103,-2.0021 -0.529296,-2.0021 -0.625194,0 -2.411149,-1.0894 -3.520296,-2.1474 -0.935481,-0.8924 -1.234042,-1.3433 -1.582618,-2.3908 -0.544337,-1.63569 -0.419263,-2.42607 0.513542,-3.24502 0.796221,-0.69912 1.668128,-0.9116 3.215261,-0.78324 0.859419,0.0714 1.225184,0.21426 1.692566,0.66222 0.327922,0.31405 0.596223,0.66202 0.596223,0.77312 0,0.46165 1.065148,1.68792 1.854754,2.13482 2.126291,1.2045 5.720498,-0.1805 6.993043,-2.69308 1.260126,-2.48879 4.979584,-5.12398 7.232778,-5.12438 2.023694,-4e-4 2.339385,0.63028 2.339385,4.67344 0,3.72932 -0.07793,4.10522 -0.924085,4.45882 -0.365631,0.1527 -0.971694,0.2779 -1.346801,0.2779 -0.375117,0 -1.076267,0.1409 -1.558115,0.3131 -0.481856,0.1726 -1.999348,0.5424 -3.372207,0.8227 -2.917365,0.5951 -4.23614,1.1296 -5.41952,2.1957 -1.57511,1.4189 -1.576005,1.4243 -1.726494,10.153 l -0.133158,7.7236 0.533931,0.2032 c 0.33676,0.127 1.92216,0.1567 4.293183,0.077 3.293073,-0.1111 3.84817,-0.083 4.476137,0.2142 0.394277,0.1865 0.819454,0.5654 0.944829,0.8406 0.162064,0.3557 0.227965,3.8444 0.227965,12.0686 l 0,11.5682 -0.468483,0.4402 c -0.257663,0.242 -0.775132,0.5279 -1.149923,0.6355 -0.756307,0.217 -27.79797,0.2255 -29.587093,0 z m 24.3872,-5.0139 c 0.566259,-0.3029 0.955949,-1.5437 1.102473,-3.5097 0.0739,-0.9911 0.276486,-2.3876 0.450269,-3.1034 0.317364,-1.3072 0.4255,-7.3723 0.147085,-8.2496 -0.06682,-0.2105 -0.344839,-0.4676 -0.617881,-0.5713 -0.28368,-0.1072 -4.290281,-0.1885 -9.348518,-0.1885 -7.581174,0 -8.914212,0.044 -9.284887,0.3031 -0.650978,0.4559 -2.258123,2.6495 -2.786033,3.8028 -0.783687,1.7116 -1.167041,3.9394 -1.17117,6.8059 -0.004,2.728 0.180038,3.5777 0.964532,4.4548 l 0.402933,0.4505 9.889004,0 c 6.011676,0 10.031405,-0.075 10.252193,-0.1944 z"
       style="fill:#b40a0a;fill-opacity:1;stroke:#f5e8e8;stroke-width:2;stroke-linecap:round;stroke-linejoin:round;stroke-miterlimit:4;stroke-dasharray:none;stroke-opacity:1" />
  </g>
</svg>
