<?xml version="1.0" encoding="UTF-8" standalone="no"?>
<svg
   xmlns:dc="http://purl.org/dc/elements/1.1/"
   xmlns:cc="http://creativecommons.org/ns#"
   xmlns:rdf="http://www.w3.org/1999/02/22-rdf-syntax-ns#"
   xmlns:svg="http://www.w3.org/2000/svg"
   xmlns="http://www.w3.org/2000/svg"
   xmlns:xlink="http://www.w3.org/1999/xlink"
   id="svg3039"
   version="1.1"
   width="34"
   height="39">
  <metadata
     id="metadata3045">
    <rdf:RDF>
      <cc:Work
         rdf:about="">
        <dc:format>image/svg+xml</dc:format>
        <dc:type
           rdf:resource="http://purl.org/dc/dcmitype/StillImage" />
        <dc:title></dc:title>
      </cc:Work>
    </rdf:RDF>
  </metadata>
  <defs
     id="defs3043" />
  <path
     xlink:href="#path3051"
     style="fill:#4d8000;fill-opacity:1;stroke:#dfe8d1;stroke-width:1.9;stroke-linejoin:round;stroke-miterlimit:4;stroke-dasharray:none;stroke-opacity:1"
     id="path4243"
     d="M 12.043942,1.7716537 C 10.84897,1.7533526 9.7329425,1.9566594 8.5175347,2.5044405 7.2321447,3.0837626 5.8221295,4.0681747 4.8002331,5.285746 3.7695624,6.5137708 3.3289963,7.8452966 2.8625561,9.0687319 2.3471451,10.420612 1.9382712,11.991473 1.7089807,13.371032 c -0.2270963,1.366345 -0.2896096,2.555716 -0.2647885,3.865091 0.025832,1.362753 0.2163,2.680048 0.4269459,4.045722 0.2119669,1.374221 0.4784724,2.911822 0.7820501,4.328983 0.3135174,1.463567 1.0181015,4.092933 1.0181015,4.092933 a 1.3081903,1.3081903 0 0 0 0.022574,0.0739 l 1.8124677,5.439453 a 1.3081903,1.3081903 0 0 0 0.1498415,0.30789 l 0.5583137,0.847733 a 1.3081903,1.3081903 0 0 0 0.5542087,0.472103 l 0.6794182,0.305841 a 1.3081903,1.3081903 0 0 0 1.5168887,-0.324314 l 0.5788397,-0.652735 c 0.011529,-0.0074 0.057455,-0.03692 0.057476,-0.03695 2.029e-4,-2.11e-4 0.2440995,-0.358859 0.2442625,-0.35921 1.618e-4,-3.5e-4 0.088142,-0.256073 0.088258,-0.256578 2.322e-4,-10e-4 0.032265,-0.222721 0.032841,-0.287366 5.77e-4,-0.06464 -0.00252,-0.107065 -0.0062,-0.143684 -0.01438,-0.146479 -0.030512,-0.192796 -0.045162,-0.250422 C 9.8567205,34.608913 9.7701353,34.355304 9.5314807,33.683791 9.1526976,32.617994 8.1692678,29.957873 8.0453805,29.533386 7.8434396,28.841453 7.2854905,26.986328 7.0170166,25.822242 6.735454,24.601416 6.570394,23.698987 6.3540183,22.213729 6.1473986,20.795442 5.9578715,18.3691 6.0009675,17.086274 6.0460635,15.743993 6.2223005,15.120782 6.4299658,13.986811 6.6283682,12.903429 6.8349069,11.823234 7.1258049,10.948929 7.4442219,9.9919114 7.8311425,9.04424 8.1911169,8.5022004 8.5945699,7.8946933 8.9997475,7.502306 9.4575858,7.1597843 9.8827797,6.841685 10.195563,6.7090399 10.771265,6.500892 c 0.54883,-0.1984318 1.26897,-0.3722422 1.557941,-0.3735775 0.517324,-0.0024 0.547372,-0.00632 0.999628,0.2114203 0.35016,0.1685803 0.891827,0.5893959 1.338311,1.1104695 0.437818,0.5109591 0.858059,1.2012841 1.163838,1.9930978 0.291764,0.7555239 0.543814,1.9704719 0.570629,2.7074109 0.02669,0.733766 -0.134842,1.142434 -0.311999,2.15936 -0.173847,0.99794 -0.300896,2.077873 -0.593207,2.849043 -0.23663,0.624266 -1.471732,2.5822 -1.471732,2.5822 a 1.3081903,1.3081903 0 0 0 -0.209367,0.564473 l -0.09236,0.751259 a 1.3081903,1.3081903 0 0 0 0.02053,0.447473 l 0.174473,0.773839 a 1.3081903,1.3081903 0 0 0 0.646576,0.857997 l 0.568577,0.314051 c 0.0039,0.0029 0.0043,0.0054 0.0082,0.0082 0.0069,0.0051 0.01753,0.0053 0.02463,0.0103 l 0.08415,0.04516 -0.02257,-0.02257 c 0.20759,0.131567 0.452579,0.235921 0.697892,0.25863 0.55144,0.05104 0.999071,-0.12105 1.518942,-0.41463 0.897515,-0.506841 1.301286,-1.180739 1.855572,-1.882257 0.554287,-0.701515 1.137661,-1.431221 1.350627,-1.625677 0.838511,-0.765631 0.95489,-0.907849 1.239784,-0.997575 0.270616,-0.08523 0.549138,-0.05209 0.79026,0.0308 0.258329,0.0888 0.07542,-0.031 0.387947,0.326365 0.210895,0.241153 0.535843,0.777932 0.628102,1.122787 0.0997,0.372648 0.111099,0.995778 0.02053,1.481994 -0.06052,0.324867 -0.350391,0.814179 -0.660945,1.537416 -0.326206,0.759687 -0.191235,0.786311 -0.62605,1.436836 -0.143337,0.214445 -0.651871,0.792112 -1.161787,1.311627 -0.509914,0.519515 -1.033529,1.020222 -1.342415,1.32189 -0.575086,0.561647 -1.447412,1.383073 -2.325623,2.181939 -1.017508,0.925579 -2.068263,1.840413 -2.6212,2.266097 -0.131001,0.100845 -0.379981,0.212568 -0.757419,0.394105 -0.377438,0.181535 -0.965842,0.479541 -1.332153,1.157678 -0.429437,0.795005 -0.313653,1.389434 -0.264788,1.874046 0.04887,0.484612 0.145736,0.874417 0.145736,0.874417 a 1.3081903,1.3081903 0 0 0 1.270574,0.993471 l 17.469882,0 a 1.3081903,1.3081903 0 0 0 1.307522,-1.276732 l 0.04105,-1.771415 A 1.3081903,1.3081903 0 0 0 31.552032,32.754 l -11.156011,0 0.451577,-0.367421 a 1.3081903,1.3081903 0 0 0 0.0021,0 c 1.23887,-1.00943 2.488858,-2.229023 3.614671,-3.522302 1.136137,-1.305138 2.370774,-2.940696 3.023516,-4.52193 0.602247,-1.458913 0.815573,-2.777686 0.757418,-3.98209 -0.05827,-1.206967 -0.396693,-2.254742 -0.931881,-3.130276 -0.57504,-0.940726 -1.372217,-1.609625 -2.153203,-2.058782 -0.753771,-0.433505 -1.602412,-0.71074 -2.502149,-0.714314 -0.836064,-0.0034 -1.623288,0.274241 -2.383097,0.652734 0.224003,-0.971774 0.44669,-2.135114 0.346894,-3.514091 C 20.483359,9.6817529 19.875751,7.1940766 18.868917,5.5320609 17.983746,4.0708785 16.969733,3.2927825 15.900823,2.7117555 14.657324,2.0358277 13.278643,1.7905633 12.043942,1.7716537 Z" />
</svg>
