<?xml version="1.0" encoding="UTF-8" standalone="no"?>
<svg
   xmlns:osb="http://www.openswatchbook.org/uri/2009/osb"
   xmlns:dc="http://purl.org/dc/elements/1.1/"
   xmlns:cc="http://creativecommons.org/ns#"
   xmlns:rdf="http://www.w3.org/1999/02/22-rdf-syntax-ns#"
   xmlns:svg="http://www.w3.org/2000/svg"
   xmlns="http://www.w3.org/2000/svg"
   version="1.1"
   id="svg2"
   viewBox="0 0 32 32.000001"
   height="32"
   width="32">
  <defs
     id="defs4">
    <linearGradient
       osb:paint="solid"
       id="linearGradient6199">
      <stop
         id="stop6201"
         offset="0"
         style="stop-color:#8ab23b;stop-opacity:1;" />
    </linearGradient>
  </defs>
  <metadata
     id="metadata7">
    <rdf:RDF>
      <cc:Work
         rdf:about="">
        <dc:format>image/svg+xml</dc:format>
        <dc:type
           rdf:resource="http://purl.org/dc/dcmitype/StillImage" />
        <dc:title></dc:title>
      </cc:Work>
    </rdf:RDF>
  </metadata>
  <g
     transform="translate(0,-1020.3622)"
     id="layer1">
    <path
       id="path4169"
       transform="translate(0,1020.3622)"
       d="m 15.957031,2.1816406 c -0.467988,0.2773691 -0.948368,0.5534241 -1.421875,0.8281287 -0.822552,0.4821 -1.697405,0.9249688 -2.365234,1.6054688 -0.572412,0.5833 -1.127118,1.2656875 -1.339844,2.0546875 -0.151272,0.5611 -0.11836,1.1976344 0.08984,1.7402343 0.258857,0.6745441 1.763888,2.0073761 2.272517,2.4712391 C 12.906091,10.641963 11.801414,9.7933378 11.521484,9.75 c -0.309202,-0.0477 -0.576501,0.030978 -0.78125,0.267578 -0.264922,0.3061 -0.303448,0.758756 -0.355468,1.160156 -0.09377,0.7237 -0.03907,1.4689 0.08789,2.1875 0.127724,0.723 0.286374,1.47361 0.669922,2.09961 0.374871,0.611851 1.128684,1.274341 1.65625,1.716797 0.192073,0.138487 0.908838,0.601957 1.085018,0.780062 0,0 -0.850532,-0.583405 -1.085018,-0.780062 -0.388121,-0.27984 -0.813149,-0.476958 -1.320312,-0.535157 -0.273483,0.0074 -0.403953,0.02039 -0.558594,0.246094 -0.395422,0.5771 -0.263728,1.403156 -0.179688,2.097656 0.07589,0.6271 0.32466,1.276332 0.625,1.832032 0.265585,0.4914 0.70646,0.8714 1.117188,1.25 0.562436,0.5184 2.360408,1.603783 2.360408,1.603783 0,0 -0.976501,-0.456549 -1.221736,-0.488549 -0.408159,-0.0535 -0.989648,-0.08563 -1.228516,0.134766 -0.09346,0.0862 -0.116652,0.229368 -0.132812,0.355468 -0.09129,0.7123 -0.03416,1.473932 0.222656,2.144532 0.335306,0.8756 0.991044,1.61069 1.652344,2.27539 0.585679,0.5887 1.933593,1.892578 1.933593,1.892578 0,0 0.256414,-0.175548 1.814453,-1.640625 0.661302,-0.6647 1.402976,-1.647837 1.738282,-2.523437 0.256813,-0.6706 0.313942,-1.430278 0.222656,-2.142578 -0.01616,-0.1261 -0.03935,-0.271222 -0.132812,-0.357422 -0.238869,-0.2204 -0.820357,-0.186313 -1.228516,-0.132813 -0.245235,0.032 -0.956571,0.444356 -0.956571,0.444356 0,0 1.532807,-1.043143 2.095243,-1.561543 0.410728,-0.3786 0.851602,-0.7586 1.117187,-1.25 0.30034,-0.5557 0.549112,-1.202978 0.625,-1.830078 0.08404,-0.6945 0.215735,-1.520557 -0.179687,-2.097656 -0.154641,-0.2257 -0.285111,-0.238694 -0.558594,-0.246094 -0.509093,0.05842 -0.934937,0.257465 -1.324219,0.539062 -0.231296,0.193836 -1.302082,0.818397 -1.302082,0.818397 0.174826,-0.176736 1.11164,-0.680635 1.302082,-0.818397 0.526638,-0.441343 1.283912,-1.108563 1.660157,-1.722656 0.383548,-0.626 0.542197,-1.374656 0.669921,-2.097656 0.126962,-0.7186 0.181665,-1.4638 0.08789,-2.1875 -0.05202,-0.4014 -0.09055,-0.854056 -0.355469,-1.160156 -0.204749,-0.2366005 -0.472048,-0.3152786 -0.78125,-0.2675786 -0.27993,0.043338 -3.371548,2.2582346 -1.515625,0.8144526 0.508629,-0.463862 1.858331,-1.4797523 2.117188,-2.1542964 0.208204,-0.5426 0.241116,-1.1810875 0.08984,-1.7421875 -0.212726,-0.789 -0.767432,-1.4694343 -1.339844,-2.0527343 -0.667824,-0.6805 -1.542678,-1.1253219 -2.36523,-1.6074219 C 17.042515,2.7152943 16.497753,2.4510307 15.957031,2.1816406 Z"
       style="opacity:1;fill:none;fill-rule:evenodd;stroke:#8ab23b;stroke-width:2;stroke-linecap:butt;stroke-linejoin:round;stroke-miterlimit:4;stroke-dasharray:none;stroke-opacity:1;fill-opacity:1" />
  </g>
</svg>
