<?xml version="1.0" encoding="UTF-8" standalone="no"?>
<svg
   xmlns:dc="http://purl.org/dc/elements/1.1/"
   xmlns:cc="http://creativecommons.org/ns#"
   xmlns:rdf="http://www.w3.org/1999/02/22-rdf-syntax-ns#"
   xmlns:svg="http://www.w3.org/2000/svg"
   xmlns="http://www.w3.org/2000/svg"
   id="svg3039"
   height="27"
   width="44"
   version="1.1">
  <defs
     id="defs2990" />
  <metadata
     id="metadata3045">
    <rdf:RDF>
      <cc:Work
         rdf:about="">
        <dc:format>image/svg+xml</dc:format>
        <dc:type
           rdf:resource="http://purl.org/dc/dcmitype/StillImage" />
        <dc:title></dc:title>
      </cc:Work>
    </rdf:RDF>
  </metadata>
  <path
     style="fill:#005028;fill-opacity:1;stroke:#000000;stroke-width:1;stroke-linecap:butt;stroke-linejoin:miter;stroke-miterlimit:4;stroke-opacity:1;stroke-dasharray:none"
     id="path3100"
     d="m 22.719552,23.107338 c 0.198383,0.645495 -0.282292,1.421038 0.01819,2.025794 0.205934,0.414468 0.636167,0.850978 1.09897,0.848528 0.547947,-0.003 1.061185,-0.520654 1.290458,-1.018337 0.268723,-0.583317 0.17271,-1.332992 -0.07574,-1.925228 -0.183489,-0.437387 -0.889274,-0.56973 -0.975238,-1.036191 -0.214371,-1.163229 -0.419567,-5.366925 0,-6.704762 0.419567,-1.337837 0.553877,-1.037292 0.975238,-1.401904 0.421361,-0.364612 0.54811,-0.500805 1.462857,-0.731429 0.914747,-0.230624 3.01066,-0.256266 4.022857,-0.121905 1.012197,0.134361 1.263905,0.129014 2.31619,0.304762 1.052285,0.175748 1.783441,0.148507 3.047619,0.548572 1.264178,0.400065 1.106424,0.505386 2.377143,0.670473 1.147294,0.149052 2.179081,-0.326373 2.707152,-0.731428 0.554155,-0.425063 1.095543,-0.708615 1.071895,-1.28 -0.02191,-0.529361 -1.741502,-1.046941 -2.198617,-1.219047 0.92208,-0.172106 2.869093,-0.487619 2.869093,-0.487619 0,0 -1.737357,-1.3762681 -2.681905,-1.9504771 -0.621131,-0.377597 -1.294749,-0.661543 -1.950476,-0.975238 -0.705336,-0.337428 -1.396521,-0.713584 -2.133333,-0.975238 -1.068069,-0.3792885 -2.167118,-0.7099585 -3.291429,-0.8533325 -0.52401,-0.06682 -1.064883,-0.09369 -1.584762,0 -1.08823,0.196125 -2.106294,0.6910275 -3.108571,1.1580945 -0.635018,0.295922 -1.244176,0.649797 -1.828572,1.036191 -0.362701,0.239813 -0.613058,0.692276 -1.03619,0.792383 -0.42267,0.1 -0.931377,0.01525 -1.28,-0.24381 -0.423063,-0.314375 -0.745676,-0.875017 -0.731429,-1.401905 0.01724,-0.637425 0.806706,-1.0307305 0.975239,-1.6457135 0.08592,-0.31352 0.08452,-0.66134 0,-0.975238 -0.18937,-0.703268 -0.726918,-1.262323 -1.097143,-1.889524 -0.301109,-0.510111 -0.322111,-1.538205 -0.914286,-1.523809 -0.645189,0.01568 -0.620863,1.131847 -0.914286,1.706666 -0.359428,0.704124 -0.829547,1.370263 -1.03619,2.133334 -0.06924,0.255697 -0.146625,0.54171 -0.06095,0.79238 0.186087,0.54446 1.103578,0.7072055 1.158096,1.2799995 0.06306,0.662539 -0.464116,1.366572 -1.036191,1.706667 -0.367167,0.218279 -0.893509,0.242835 -1.28,0.06095 -0.36767,-0.173028 -0.427235,-0.70582 -0.731428,-0.975239 -0.579166,-0.512958 -1.303764,-0.845415 -2.011429,-1.158095 -0.975626,-0.4310765 -1.989498,-0.8408695 -3.047619,-0.9752375 -0.706597,-0.08973 -1.435555,-0.02105 -2.133333,0.121905 -0.9948049,0.203803 -1.8353659,0.5737545 -2.8647619,1.0361895 -0.615161,0.276348 -1.23936,0.532328 -1.853819,0.810234 -0.686377,0.310434 -1.377545,0.612228 -2.047134,0.957385 -0.954243,0.491889 -2.803809,1.5847621 -2.803809,1.5847621 0.757604,0.366164 2.0323481,0.581336 3.2526606,0.777592 -0.5529006,0.263637 -2.1876956,0.982353 -2.2774226,1.294789 -0.07215,0.437201 0.252679,0.907437 0.792381,1.340952 0.539702,0.433515 1.145378,0.904234 2.011429,1.097144 0.866051,0.19291 2.464856,-0.548769 3.413333,-0.731429 0.948477,-0.18266 1.4935139,-0.415911 2.5599999,-0.670476 1.066486,-0.254565 1.376768,-0.264903 2.133333,-0.426667 1.212134,-0.25917 2.50144,-0.29799 3.718095,-0.06095 0.714877,0.139279 1.460345,0.377146 2.011429,0.853333 0.413938,0.35768 0.700843,0.876523 0.853333,1.401905 0.62307,2.146696 0.603919,5.852487 0.121905,6.704762 -0.21936,0.387863 -0.791736,0.508227 -0.975238,0.914285 -0.267874,0.592759 -0.358888,1.372245 -0.06095,1.950477 0.301979,0.586077 0.99024,1.168072 1.645714,1.097142 0.392854,-0.0425 0.672314,-0.487987 0.822857,-0.853333 0.267077,-0.648157 -0.172487,-1.431855 0.03048,-2.102857 0.108505,-0.358722 0.23476,-0.942063 0.609523,-0.944762 0.393842,-0.0028 0.539081,0.607057 0.654782,0.98353 z" />
</svg>
