<?xml version="1.0" encoding="UTF-8" standalone="no"?>
<svg
   xmlns:dc="http://purl.org/dc/elements/1.1/"
   xmlns:cc="http://creativecommons.org/ns#"
   xmlns:rdf="http://www.w3.org/1999/02/22-rdf-syntax-ns#"
   xmlns:svg="http://www.w3.org/2000/svg"
   xmlns="http://www.w3.org/2000/svg"
   xmlns:xlink="http://www.w3.org/1999/xlink"
   version="1.1"
   id="svg2"
   height="53"
   width="55">
  <defs
     id="defs4">
    <linearGradient
       id="linearGradient3765">
      <stop
         style="stop-color:#005028;stop-opacity:1;"
         offset="0"
         id="stop3767" />
      <stop
         id="stop3773"
         offset="0.28061539"
         style="stop-color:#005028;stop-opacity:0.66666669;" />
      <stop
         style="stop-color:#005028;stop-opacity:0.38562092;"
         offset="0.6568951"
         id="stop3775" />
      <stop
         id="stop3769"
         offset="1"
         style="stop-color:#005028;stop-opacity:0;" />
    </linearGradient>
    <linearGradient
       id="linearGradient3755">
      <stop
         id="stop3757"
         offset="0"
         style="stop-color:#ff0000;stop-opacity:1;" />
      <stop
         style="stop-color:#7f2814;stop-opacity:0.49803922;"
         offset="0.5"
         id="stop3763" />
      <stop
         id="stop3759"
         offset="1"
         style="stop-color:#005028;stop-opacity:0;" />
    </linearGradient>
  </defs>
  <metadata
     id="metadata7">
    <rdf:RDF>
      <cc:Work
         rdf:about="">
        <dc:format>image/svg+xml</dc:format>
        <dc:type
           rdf:resource="http://purl.org/dc/dcmitype/StillImage" />
        <dc:title></dc:title>
      </cc:Work>
    </rdf:RDF>
  </metadata>
  <g
     transform="translate(0,-999.3622)"
     id="layer1">
    <path
       d="m 26.101562,1001.7305 0,0 a 1.5832115,1.5832115 0 0 0 -0.0078,0 c -16.6316364,0.3074 -29.0726184,20.2389 -20.7363281,35.1054 7.6702401,16.9182 34.1471161,17.9255 43.4707031,2.0743 8.291618,-12.0672 2.118319,-29.5291 -11.001953,-35.0411 -3.199229,-1.4512 -6.718013,-2.1925 -10.244141,-2.1074 -0.445781,-0.023 -0.886436,-0.03 -1.322265,-0.025 a 1.5832115,1.5832115 0 0 0 -0.158204,-0.01 z m 1.607422,5.1621 0,0 c 4.39208,-0.1043 8.482466,1.4096 11.794922,3.916 l -11.523437,11.2949 -11.804688,-11.5683 c 2.883006,-2.148 6.3375,-3.4923 10.076172,-3.5547 a 1.5832115,1.5832115 0 0 0 0.125,-0.01 c 0.449149,-0.043 0.894458,-0.072 1.332031,-0.082 z m -14.96875,6.8886 11.751954,11.7461 -12.4375,12.1895 c -0.516205,-0.6884 -1.003081,-1.408 -1.421876,-2.1973 a 1.5832115,1.5832115 0 0 0 -0.07031,-0.1191 c -3.121086,-4.8105 -3.273361,-10.4703 -1.3671875,-15.5508 0.8245445,-2.1977 2.0346005,-4.2627 3.5449215,-6.0684 z m 30.177735,0.2989 c 1.434093,1.7266 2.592776,3.6713 3.375,5.7539 1.710923,4.5552 1.694182,9.6566 -0.84375,14.459 a 1.5832115,1.5832115 0 0 0 -0.04492,0.094 c -0.495386,1.1079 -1.092877,2.1251 -1.775391,3.0586 l -12.162109,-11.9199 11.451172,-11.4453 z m -14.939453,14.9316 12.048828,12.0449 c -0.09386,0.07 -0.184066,0.1448 -0.279297,0.2129 -6.83882,4.8905 -17.231534,4.9437 -24.054688,0.021 l 12.285157,-12.2793 z"
       id="path4217"
       style="opacity:1;fill:#4d8000;fill-opacity:1;fill-rule:nonzero;stroke:#000000;stroke-width:2.29999995;stroke-linejoin:round;stroke-miterlimit:4;stroke-dasharray:none;stroke-dashoffset:0;stroke-opacity:1"
       xlink:href="#path4198" />
    <path
       id="path4198"
       d="m 26.100642,1001.7337 a 1.5832115,1.5832115 0 0 0 -0.0078,0 c -16.6316364,0.3074 -29.0726301,20.239 -20.7363398,35.1055 7.6702398,16.9182 34.1471158,17.9254 43.4707028,2.0742 8.291618,-12.0672 2.118319,-29.529 -11.001953,-35.041 -3.199229,-1.4512 -6.718013,-2.1926 -10.244141,-2.1075 -0.445781,-0.023 -0.886436,-0.03 -1.322265,-0.025 a 1.5832115,1.5832115 0 0 0 -0.158204,-0.01 z m 1.607422,5.1621 c 4.39208,-0.1043 8.482466,1.4097 11.794922,3.9161 l -11.523437,11.2949 -11.804688,-11.5684 c 2.883006,-2.148 6.3375,-3.4923 10.076172,-3.5547 a 1.5832115,1.5832115 0 0 0 0.125,-0.01 c 0.449149,-0.043 0.894458,-0.072 1.332031,-0.082 z m -14.968749,6.8848 11.751953,11.7461 -12.4375,12.1895 c -0.516205,-0.6884 -1.00308,-1.408 -1.421875,-2.1973 a 1.5832115,1.5832115 0 0 0 -0.07031,-0.1192 c -3.121086,-4.8105 -3.2733612,-10.4702 -1.3671877,-15.5507 0.8245447,-2.1977 2.0346007,-4.2628 3.5449217,-6.0684 z m 30.177734,0.2988 c 1.434093,1.7266 2.592776,3.6713 3.375,5.7539 1.710923,4.5552 1.694182,9.6566 -0.84375,14.459 a 1.5832115,1.5832115 0 0 0 -0.04492,0.094 c -0.495386,1.1079 -1.092877,2.1251 -1.775391,3.0586 l -12.162111,-11.92 11.451172,-11.4453 z m -14.939453,14.9317 12.048828,12.0449 c -0.09386,0.07 -0.184066,0.1448 -0.279297,0.2129 -6.83882,4.8905 -17.231534,4.9442 -24.054688,0.022 l 12.285157,-12.2793 z"
       style="opacity:1;fill:#4d8000;fill-opacity:1;fill-rule:nonzero;stroke:#000000;stroke-width:2.29999995;stroke-linejoin:round;stroke-miterlimit:4;stroke-dasharray:none;stroke-dashoffset:0;stroke-opacity:1" />
  </g>
</svg>
